<?xml version="1.0" encoding="utf-8" standalone="no"?>
<!DOCTYPE svg PUBLIC "-//W3C//DTD SVG 1.1//EN"
  "http://www.w3.org/Graphics/SVG/1.1/DTD/svg11.dtd">
<svg xmlns:xlink="http://www.w3.org/1999/xlink" width="542.441094pt" height="176.982188pt" viewBox="0 0 542.441094 176.982188" xmlns="http://www.w3.org/2000/svg" version="1.1">
 <metadata>
  <rdf:RDF xmlns:dc="http://purl.org/dc/elements/1.1/" xmlns:cc="http://creativecommons.org/ns#" xmlns:rdf="http://www.w3.org/1999/02/22-rdf-syntax-ns#">
   <cc:Work>
    <dc:type rdf:resource="http://purl.org/dc/dcmitype/StillImage"/>
    <dc:date>2023-09-13T19:54:01.571600</dc:date>
    <dc:format>image/svg+xml</dc:format>
    <dc:creator>
     <cc:Agent>
      <dc:title>Matplotlib v3.7.1, https://matplotlib.org/</dc:title>
     </cc:Agent>
    </dc:creator>
   </cc:Work>
  </rdf:RDF>
 </metadata>
 <defs>
  <style type="text/css">*{stroke-linejoin: round; stroke-linecap: butt}</style>
 </defs>
 <g id="figure_1">
  <g id="patch_1">
   <path d="M 0 176.982188 
L 542.441094 176.982188 
L 542.441094 0 
L 0 0 
L 0 176.982188 
z
" style="fill: none"/>
  </g>
  <g id="axes_1">
   <g id="patch_2">
    <path d="M 40.241094 146 
L 263.441094 146 
L 263.441094 30.5 
L 40.241094 30.5 
L 40.241094 146 
z
" style="fill: none"/>
   </g>
   <g id="patch_3">
    <path d="M 50.386548 146 
L 62.824058 146 
L 62.824058 59.542063 
L 50.386548 59.542063 
z
" clip-path="url(#p0decc6d9c8)" style="fill: #e41a1c"/>
   </g>
   <g id="patch_4">
    <path d="M 85.922291 146 
L 98.359801 146 
L 98.359801 63.499622 
L 85.922291 63.499622 
z
" clip-path="url(#p0decc6d9c8)" style="fill: #e41a1c"/>
   </g>
   <g id="patch_5">
    <path d="M 121.458034 146 
L 133.895544 146 
L 133.895544 64.171437 
L 121.458034 64.171437 
z
" clip-path="url(#p0decc6d9c8)" style="fill: #e41a1c"/>
   </g>
   <g id="patch_6">
    <path d="M 156.993776 146 
L 169.431286 146 
L 169.431286 62.751722 
L 156.993776 62.751722 
z
" clip-path="url(#p0decc6d9c8)" style="fill: #e41a1c"/>
   </g>
   <g id="patch_7">
    <path d="M 192.529519 146 
L 204.967029 146 
L 204.967029 57.316723 
L 192.529519 57.316723 
z
" clip-path="url(#p0decc6d9c8)" style="fill: #e41a1c"/>
   </g>
   <g id="patch_8">
    <path d="M 228.065262 146 
L 240.502772 146 
L 240.502772 57.153846 
L 228.065262 57.153846 
z
" clip-path="url(#p0decc6d9c8)" style="fill: #e41a1c"/>
   </g>
   <g id="patch_9">
    <path d="M 63.179416 146 
L 75.616926 146 
L 75.616926 59.071055 
L 63.179416 59.071055 
z
" clip-path="url(#p0decc6d9c8)" style="fill: #377eb8"/>
   </g>
   <g id="patch_10">
    <path d="M 98.715158 146 
L 111.152668 146 
L 111.152668 60.488445 
L 98.715158 60.488445 
z
" clip-path="url(#p0decc6d9c8)" style="fill: #377eb8"/>
   </g>
   <g id="patch_11">
    <path d="M 134.250901 146 
L 146.688411 146 
L 146.688411 60.198351 
L 134.250901 60.198351 
z
" clip-path="url(#p0decc6d9c8)" style="fill: #377eb8"/>
   </g>
   <g id="patch_12">
    <path d="M 169.786644 146 
L 182.224154 146 
L 182.224154 62.370765 
L 169.786644 62.370765 
z
" clip-path="url(#p0decc6d9c8)" style="fill: #377eb8"/>
   </g>
   <g id="patch_13">
    <path d="M 205.322387 146 
L 217.759896 146 
L 217.759896 63.622285 
L 205.322387 63.622285 
z
" clip-path="url(#p0decc6d9c8)" style="fill: #377eb8"/>
   </g>
   <g id="patch_14">
    <path d="M 240.858129 146 
L 253.295639 146 
L 253.295639 59.071055 
L 240.858129 59.071055 
z
" clip-path="url(#p0decc6d9c8)" style="fill: #377eb8"/>
   </g>
   <g id="matplotlib.axis_1">
    <g id="xtick_1">
     <g id="line2d_1">
      <defs>
       <path id="mbafaaf4428" d="M 0 0 
L 0 3.5 
" style="stroke: #000000; stroke-width: 0.8"/>
      </defs>
      <g>
       <use xlink:href="#mbafaaf4428" x="62.824058" y="146" style="stroke: #000000; stroke-width: 0.8"/>
      </g>
     </g>
     <g id="text_1">
      <!-- MLP -->
      <g transform="translate(51.515543 160.638125) scale(0.11 -0.11)">
       <defs>
        <path id="TimesNewRomanPSMT-4d" d="M 2619 0 
L 981 3566 
L 981 734 
Q 981 344 1066 247 
Q 1181 116 1431 116 
L 1581 116 
L 1581 0 
L 106 0 
L 106 116 
L 256 116 
Q 525 116 638 278 
Q 706 378 706 734 
L 706 3503 
Q 706 3784 644 3909 
Q 600 4000 483 4061 
Q 366 4122 106 4122 
L 106 4238 
L 1306 4238 
L 2844 922 
L 4356 4238 
L 5556 4238 
L 5556 4122 
L 5409 4122 
Q 5138 4122 5025 3959 
Q 4956 3859 4956 3503 
L 4956 734 
Q 4956 344 5044 247 
Q 5159 116 5409 116 
L 5556 116 
L 5556 0 
L 3756 0 
L 3756 116 
L 3906 116 
Q 4178 116 4288 278 
Q 4356 378 4356 734 
L 4356 3566 
L 2722 0 
L 2619 0 
z
" transform="scale(0.015625)"/>
        <path id="TimesNewRomanPSMT-4c" d="M 3669 1172 
L 3772 1150 
L 3409 0 
L 128 0 
L 128 116 
L 288 116 
Q 556 116 672 291 
Q 738 391 738 753 
L 738 3488 
Q 738 3884 650 3984 
Q 528 4122 288 4122 
L 128 4122 
L 128 4238 
L 2047 4238 
L 2047 4122 
Q 1709 4125 1573 4059 
Q 1438 3994 1388 3894 
Q 1338 3794 1338 3416 
L 1338 753 
Q 1338 494 1388 397 
Q 1425 331 1503 300 
Q 1581 269 1991 269 
L 2300 269 
Q 2788 269 2984 341 
Q 3181 413 3343 595 
Q 3506 778 3669 1172 
z
" transform="scale(0.015625)"/>
        <path id="TimesNewRomanPSMT-50" d="M 1313 1984 
L 1313 750 
Q 1313 350 1400 253 
Q 1519 116 1759 116 
L 1922 116 
L 1922 0 
L 106 0 
L 106 116 
L 266 116 
Q 534 116 650 291 
Q 713 388 713 750 
L 713 3488 
Q 713 3888 628 3984 
Q 506 4122 266 4122 
L 106 4122 
L 106 4238 
L 1659 4238 
Q 2228 4238 2556 4120 
Q 2884 4003 3109 3725 
Q 3334 3447 3334 3066 
Q 3334 2547 2992 2222 
Q 2650 1897 2025 1897 
Q 1872 1897 1694 1919 
Q 1516 1941 1313 1984 
z
M 1313 2163 
Q 1478 2131 1606 2115 
Q 1734 2100 1825 2100 
Q 2150 2100 2386 2351 
Q 2622 2603 2622 3003 
Q 2622 3278 2509 3514 
Q 2397 3750 2190 3867 
Q 1984 3984 1722 3984 
Q 1563 3984 1313 3925 
L 1313 2163 
z
" transform="scale(0.015625)"/>
       </defs>
       <use xlink:href="#TimesNewRomanPSMT-4d"/>
       <use xlink:href="#TimesNewRomanPSMT-4c" x="88.916016"/>
       <use xlink:href="#TimesNewRomanPSMT-50" x="150"/>
      </g>
     </g>
    </g>
    <g id="xtick_2">
     <g id="line2d_2">
      <g>
       <use xlink:href="#mbafaaf4428" x="98.359801" y="146" style="stroke: #000000; stroke-width: 0.8"/>
      </g>
     </g>
     <g id="text_2">
      <!-- LSTM -->
      <g transform="translate(83.691988 160.638125) scale(0.11 -0.11)">
       <defs>
        <path id="TimesNewRomanPSMT-53" d="M 2934 4334 
L 2934 2869 
L 2819 2869 
Q 2763 3291 2617 3541 
Q 2472 3791 2203 3937 
Q 1934 4084 1647 4084 
Q 1322 4084 1109 3886 
Q 897 3688 897 3434 
Q 897 3241 1031 3081 
Q 1225 2847 1953 2456 
Q 2547 2138 2764 1967 
Q 2981 1797 3098 1565 
Q 3216 1334 3216 1081 
Q 3216 600 2842 251 
Q 2469 -97 1881 -97 
Q 1697 -97 1534 -69 
Q 1438 -53 1133 45 
Q 828 144 747 144 
Q 669 144 623 97 
Q 578 50 556 -97 
L 441 -97 
L 441 1356 
L 556 1356 
Q 638 900 775 673 
Q 913 447 1195 297 
Q 1478 147 1816 147 
Q 2206 147 2432 353 
Q 2659 559 2659 841 
Q 2659 997 2573 1156 
Q 2488 1316 2306 1453 
Q 2184 1547 1640 1851 
Q 1097 2156 867 2337 
Q 638 2519 519 2737 
Q 400 2956 400 3219 
Q 400 3675 750 4004 
Q 1100 4334 1641 4334 
Q 1978 4334 2356 4169 
Q 2531 4091 2603 4091 
Q 2684 4091 2736 4139 
Q 2788 4188 2819 4334 
L 2934 4334 
z
" transform="scale(0.015625)"/>
        <path id="TimesNewRomanPSMT-54" d="M 3703 4238 
L 3750 3244 
L 3631 3244 
Q 3597 3506 3538 3619 
Q 3441 3800 3280 3886 
Q 3119 3972 2856 3972 
L 2259 3972 
L 2259 734 
Q 2259 344 2344 247 
Q 2463 116 2709 116 
L 2856 116 
L 2856 0 
L 1059 0 
L 1059 116 
L 1209 116 
Q 1478 116 1591 278 
Q 1659 378 1659 734 
L 1659 3972 
L 1150 3972 
Q 853 3972 728 3928 
Q 566 3869 450 3700 
Q 334 3531 313 3244 
L 194 3244 
L 244 4238 
L 3703 4238 
z
" transform="scale(0.015625)"/>
       </defs>
       <use xlink:href="#TimesNewRomanPSMT-4c"/>
       <use xlink:href="#TimesNewRomanPSMT-53" x="61.083984"/>
       <use xlink:href="#TimesNewRomanPSMT-54" x="116.699219"/>
       <use xlink:href="#TimesNewRomanPSMT-4d" x="177.783203"/>
      </g>
     </g>
    </g>
    <g id="xtick_3">
     <g id="line2d_3">
      <g>
       <use xlink:href="#mbafaaf4428" x="133.895544" y="146" style="stroke: #000000; stroke-width: 0.8"/>
      </g>
     </g>
     <g id="text_3">
      <!-- GRU -->
      <g transform="translate(122.282809 160.638125) scale(0.11 -0.11)">
       <defs>
        <path id="TimesNewRomanPSMT-47" d="M 3928 4334 
L 4038 2997 
L 3928 2997 
Q 3763 3497 3500 3750 
Q 3122 4116 2528 4116 
Q 1719 4116 1297 3475 
Q 944 2934 944 2188 
Q 944 1581 1178 1081 
Q 1413 581 1792 348 
Q 2172 116 2572 116 
Q 2806 116 3025 175 
Q 3244 234 3447 350 
L 3447 1575 
Q 3447 1894 3398 1992 
Q 3350 2091 3248 2142 
Q 3147 2194 2891 2194 
L 2891 2313 
L 4531 2313 
L 4531 2194 
L 4453 2194 
Q 4209 2194 4119 2031 
Q 4056 1916 4056 1575 
L 4056 278 
Q 3697 84 3347 -6 
Q 2997 -97 2569 -97 
Q 1341 -97 703 691 
Q 225 1281 225 2053 
Q 225 2613 494 3125 
Q 813 3734 1369 4063 
Q 1834 4334 2469 4334 
Q 2700 4334 2889 4296 
Q 3078 4259 3425 4131 
Q 3600 4066 3659 4066 
Q 3719 4066 3761 4120 
Q 3803 4175 3813 4334 
L 3928 4334 
z
" transform="scale(0.015625)"/>
        <path id="TimesNewRomanPSMT-52" d="M 4325 0 
L 3194 0 
L 1759 1981 
Q 1600 1975 1500 1975 
Q 1459 1975 1412 1976 
Q 1366 1978 1316 1981 
L 1316 750 
Q 1316 350 1403 253 
Q 1522 116 1759 116 
L 1925 116 
L 1925 0 
L 109 0 
L 109 116 
L 269 116 
Q 538 116 653 291 
Q 719 388 719 750 
L 719 3488 
Q 719 3888 631 3984 
Q 509 4122 269 4122 
L 109 4122 
L 109 4238 
L 1653 4238 
Q 2328 4238 2648 4139 
Q 2969 4041 3192 3777 
Q 3416 3513 3416 3147 
Q 3416 2756 3161 2468 
Q 2906 2181 2372 2063 
L 3247 847 
Q 3547 428 3762 290 
Q 3978 153 4325 116 
L 4325 0 
z
M 1316 2178 
Q 1375 2178 1419 2176 
Q 1463 2175 1491 2175 
Q 2097 2175 2405 2437 
Q 2713 2700 2713 3106 
Q 2713 3503 2464 3751 
Q 2216 4000 1806 4000 
Q 1625 4000 1316 3941 
L 1316 2178 
z
" transform="scale(0.015625)"/>
        <path id="TimesNewRomanPSMT-55" d="M 3053 4122 
L 3053 4238 
L 4553 4238 
L 4553 4122 
L 4394 4122 
Q 4144 4122 4009 3913 
Q 3944 3816 3944 3463 
L 3944 1744 
Q 3944 1106 3817 754 
Q 3691 403 3320 151 
Q 2950 -100 2313 -100 
Q 1619 -100 1259 140 
Q 900 381 750 788 
Q 650 1066 650 1831 
L 650 3488 
Q 650 3878 542 4000 
Q 434 4122 194 4122 
L 34 4122 
L 34 4238 
L 1866 4238 
L 1866 4122 
L 1703 4122 
Q 1441 4122 1328 3956 
Q 1250 3844 1250 3488 
L 1250 1641 
Q 1250 1394 1295 1075 
Q 1341 756 1459 578 
Q 1578 400 1801 284 
Q 2025 169 2350 169 
Q 2766 169 3094 350 
Q 3422 531 3542 814 
Q 3663 1097 3663 1772 
L 3663 3488 
Q 3663 3884 3575 3984 
Q 3453 4122 3213 4122 
L 3053 4122 
z
" transform="scale(0.015625)"/>
       </defs>
       <use xlink:href="#TimesNewRomanPSMT-47"/>
       <use xlink:href="#TimesNewRomanPSMT-52" x="72.216797"/>
       <use xlink:href="#TimesNewRomanPSMT-55" x="138.916016"/>
      </g>
     </g>
    </g>
    <g id="xtick_4">
     <g id="line2d_4">
      <g>
       <use xlink:href="#mbafaaf4428" x="169.431286" y="146" style="stroke: #000000; stroke-width: 0.8"/>
      </g>
     </g>
     <g id="text_4">
      <!-- SGD -->
      <g transform="translate(158.428708 160.638125) scale(0.11 -0.11)">
       <defs>
        <path id="TimesNewRomanPSMT-44" d="M 109 0 
L 109 116 
L 269 116 
Q 538 116 650 288 
Q 719 391 719 750 
L 719 3488 
Q 719 3884 631 3984 
Q 509 4122 269 4122 
L 109 4122 
L 109 4238 
L 1834 4238 
Q 2784 4238 3279 4022 
Q 3775 3806 4076 3303 
Q 4378 2800 4378 2141 
Q 4378 1256 3841 663 
Q 3238 0 2003 0 
L 109 0 
z
M 1319 306 
Q 1716 219 1984 219 
Q 2709 219 3187 728 
Q 3666 1238 3666 2109 
Q 3666 2988 3187 3494 
Q 2709 4000 1959 4000 
Q 1678 4000 1319 3909 
L 1319 306 
z
" transform="scale(0.015625)"/>
       </defs>
       <use xlink:href="#TimesNewRomanPSMT-53"/>
       <use xlink:href="#TimesNewRomanPSMT-47" x="55.615234"/>
       <use xlink:href="#TimesNewRomanPSMT-44" x="127.832031"/>
      </g>
     </g>
    </g>
    <g id="xtick_5">
     <g id="line2d_5">
      <g>
       <use xlink:href="#mbafaaf4428" x="204.967029" y="146" style="stroke: #000000; stroke-width: 0.8"/>
      </g>
     </g>
     <g id="text_5">
      <!-- RF -->
      <g transform="translate(198.239842 160.638125) scale(0.11 -0.11)">
       <defs>
        <path id="TimesNewRomanPSMT-46" d="M 1309 4006 
L 1309 2341 
L 2081 2341 
Q 2347 2341 2470 2458 
Q 2594 2575 2634 2922 
L 2750 2922 
L 2750 1488 
L 2634 1488 
Q 2631 1734 2570 1850 
Q 2509 1966 2401 2023 
Q 2294 2081 2081 2081 
L 1309 2081 
L 1309 750 
Q 1309 428 1350 325 
Q 1381 247 1481 191 
Q 1619 116 1769 116 
L 1922 116 
L 1922 0 
L 103 0 
L 103 116 
L 253 116 
Q 516 116 634 269 
Q 709 369 709 750 
L 709 3488 
Q 709 3809 669 3913 
Q 638 3991 541 4047 
Q 406 4122 253 4122 
L 103 4122 
L 103 4238 
L 3256 4238 
L 3297 3306 
L 3188 3306 
Q 3106 3603 2998 3742 
Q 2891 3881 2733 3943 
Q 2575 4006 2244 4006 
L 1309 4006 
z
" transform="scale(0.015625)"/>
       </defs>
       <use xlink:href="#TimesNewRomanPSMT-52"/>
       <use xlink:href="#TimesNewRomanPSMT-46" x="66.699219"/>
      </g>
     </g>
    </g>
    <g id="xtick_6">
     <g id="line2d_6">
      <g>
       <use xlink:href="#mbafaaf4428" x="240.502772" y="146" style="stroke: #000000; stroke-width: 0.8"/>
      </g>
     </g>
     <g id="text_6">
      <!-- LASSO -->
      <g transform="translate(223.082381 160.638125) scale(0.11 -0.11)">
       <defs>
        <path id="TimesNewRomanPSMT-41" d="M 2928 1419 
L 1288 1419 
L 1000 750 
Q 894 503 894 381 
Q 894 284 986 211 
Q 1078 138 1384 116 
L 1384 0 
L 50 0 
L 50 116 
Q 316 163 394 238 
Q 553 388 747 847 
L 2238 4334 
L 2347 4334 
L 3822 809 
Q 4000 384 4145 257 
Q 4291 131 4550 116 
L 4550 0 
L 2878 0 
L 2878 116 
Q 3131 128 3220 200 
Q 3309 272 3309 375 
Q 3309 513 3184 809 
L 2928 1419 
z
M 2841 1650 
L 2122 3363 
L 1384 1650 
L 2841 1650 
z
" transform="scale(0.015625)"/>
        <path id="TimesNewRomanPSMT-4f" d="M 2341 4334 
Q 3166 4334 3770 3707 
Q 4375 3081 4375 2144 
Q 4375 1178 3765 540 
Q 3156 -97 2291 -97 
Q 1416 -97 820 525 
Q 225 1147 225 2134 
Q 225 3144 913 3781 
Q 1509 4334 2341 4334 
z
M 2281 4106 
Q 1713 4106 1369 3684 
Q 941 3159 941 2147 
Q 941 1109 1384 550 
Q 1725 125 2284 125 
Q 2881 125 3270 590 
Q 3659 1056 3659 2059 
Q 3659 3147 3231 3681 
Q 2888 4106 2281 4106 
z
" transform="scale(0.015625)"/>
       </defs>
       <use xlink:href="#TimesNewRomanPSMT-4c"/>
       <use xlink:href="#TimesNewRomanPSMT-41" x="61.083984"/>
       <use xlink:href="#TimesNewRomanPSMT-53" x="133.300781"/>
       <use xlink:href="#TimesNewRomanPSMT-53" x="188.916016"/>
       <use xlink:href="#TimesNewRomanPSMT-4f" x="244.53125"/>
      </g>
     </g>
    </g>
    <g id="text_7">
     <!-- Models -->
     <g transform="translate(135.340234 174.629219) scale(0.11 -0.11)">
      <defs>
       <path id="TimesNewRomanPSMT-6f" d="M 1600 2947 
Q 2250 2947 2644 2453 
Q 2978 2031 2978 1484 
Q 2978 1100 2793 706 
Q 2609 313 2286 112 
Q 1963 -88 1566 -88 
Q 919 -88 538 428 
Q 216 863 216 1403 
Q 216 1797 411 2186 
Q 606 2575 925 2761 
Q 1244 2947 1600 2947 
z
M 1503 2744 
Q 1338 2744 1170 2645 
Q 1003 2547 900 2300 
Q 797 2053 797 1666 
Q 797 1041 1045 587 
Q 1294 134 1700 134 
Q 2003 134 2200 384 
Q 2397 634 2397 1244 
Q 2397 2006 2069 2444 
Q 1847 2744 1503 2744 
z
" transform="scale(0.015625)"/>
       <path id="TimesNewRomanPSMT-64" d="M 2222 322 
Q 2013 103 1813 7 
Q 1613 -88 1381 -88 
Q 913 -88 563 304 
Q 213 697 213 1313 
Q 213 1928 600 2439 
Q 988 2950 1597 2950 
Q 1975 2950 2222 2709 
L 2222 3238 
Q 2222 3728 2198 3840 
Q 2175 3953 2125 3993 
Q 2075 4034 2000 4034 
Q 1919 4034 1784 3984 
L 1744 4094 
L 2597 4444 
L 2738 4444 
L 2738 1134 
Q 2738 631 2761 520 
Q 2784 409 2836 365 
Q 2888 322 2956 322 
Q 3041 322 3181 375 
L 3216 266 
L 2366 -88 
L 2222 -88 
L 2222 322 
z
M 2222 541 
L 2222 2016 
Q 2203 2228 2109 2403 
Q 2016 2578 1861 2667 
Q 1706 2756 1559 2756 
Q 1284 2756 1069 2509 
Q 784 2184 784 1559 
Q 784 928 1059 592 
Q 1334 256 1672 256 
Q 1956 256 2222 541 
z
" transform="scale(0.015625)"/>
       <path id="TimesNewRomanPSMT-65" d="M 681 1784 
Q 678 1147 991 784 
Q 1303 422 1725 422 
Q 2006 422 2214 576 
Q 2422 731 2563 1106 
L 2659 1044 
Q 2594 616 2278 264 
Q 1963 -88 1488 -88 
Q 972 -88 605 314 
Q 238 716 238 1394 
Q 238 2128 614 2539 
Q 991 2950 1559 2950 
Q 2041 2950 2350 2633 
Q 2659 2316 2659 1784 
L 681 1784 
z
M 681 1966 
L 2006 1966 
Q 1991 2241 1941 2353 
Q 1863 2528 1708 2628 
Q 1553 2728 1384 2728 
Q 1125 2728 920 2526 
Q 716 2325 681 1966 
z
" transform="scale(0.015625)"/>
       <path id="TimesNewRomanPSMT-6c" d="M 1184 4444 
L 1184 647 
Q 1184 378 1223 290 
Q 1263 203 1344 158 
Q 1425 113 1647 113 
L 1647 0 
L 244 0 
L 244 113 
Q 441 113 512 153 
Q 584 194 625 287 
Q 666 381 666 647 
L 666 3247 
Q 666 3731 644 3842 
Q 622 3953 573 3993 
Q 525 4034 450 4034 
Q 369 4034 244 3984 
L 191 4094 
L 1044 4444 
L 1184 4444 
z
" transform="scale(0.015625)"/>
       <path id="TimesNewRomanPSMT-73" d="M 2050 2947 
L 2050 1972 
L 1947 1972 
Q 1828 2431 1642 2597 
Q 1456 2763 1169 2763 
Q 950 2763 815 2647 
Q 681 2531 681 2391 
Q 681 2216 781 2091 
Q 878 1963 1175 1819 
L 1631 1597 
Q 2266 1288 2266 781 
Q 2266 391 1970 151 
Q 1675 -88 1309 -88 
Q 1047 -88 709 6 
Q 606 38 541 38 
Q 469 38 428 -44 
L 325 -44 
L 325 978 
L 428 978 
Q 516 541 762 319 
Q 1009 97 1316 97 
Q 1531 97 1667 223 
Q 1803 350 1803 528 
Q 1803 744 1651 891 
Q 1500 1038 1047 1263 
Q 594 1488 453 1669 
Q 313 1847 313 2119 
Q 313 2472 555 2709 
Q 797 2947 1181 2947 
Q 1350 2947 1591 2875 
Q 1750 2828 1803 2828 
Q 1853 2828 1881 2850 
Q 1909 2872 1947 2947 
L 2050 2947 
z
" transform="scale(0.015625)"/>
      </defs>
      <use xlink:href="#TimesNewRomanPSMT-4d"/>
      <use xlink:href="#TimesNewRomanPSMT-6f" x="88.916016"/>
      <use xlink:href="#TimesNewRomanPSMT-64" x="138.916016"/>
      <use xlink:href="#TimesNewRomanPSMT-65" x="188.916016"/>
      <use xlink:href="#TimesNewRomanPSMT-6c" x="233.300781"/>
      <use xlink:href="#TimesNewRomanPSMT-73" x="261.083984"/>
     </g>
    </g>
   </g>
   <g id="matplotlib.axis_2">
    <g id="ytick_1">
     <g id="line2d_7">
      <defs>
       <path id="me50974985d" d="M 0 0 
L -3.5 0 
" style="stroke: #000000; stroke-width: 0.8"/>
      </defs>
      <g>
       <use xlink:href="#me50974985d" x="40.241094" y="146" style="stroke: #000000; stroke-width: 0.8"/>
      </g>
     </g>
     <g id="text_8">
      <!-- 0.00 -->
      <g transform="translate(13.991094 149.819063) scale(0.11 -0.11)">
       <defs>
        <path id="TimesNewRomanPSMT-30" d="M 231 2094 
Q 231 2819 450 3342 
Q 669 3866 1031 4122 
Q 1313 4325 1613 4325 
Q 2100 4325 2488 3828 
Q 2972 3213 2972 2159 
Q 2972 1422 2759 906 
Q 2547 391 2217 158 
Q 1888 -75 1581 -75 
Q 975 -75 572 641 
Q 231 1244 231 2094 
z
M 844 2016 
Q 844 1141 1059 588 
Q 1238 122 1591 122 
Q 1759 122 1940 273 
Q 2122 425 2216 781 
Q 2359 1319 2359 2297 
Q 2359 3022 2209 3506 
Q 2097 3866 1919 4016 
Q 1791 4119 1609 4119 
Q 1397 4119 1231 3928 
Q 1006 3669 925 3112 
Q 844 2556 844 2016 
z
" transform="scale(0.015625)"/>
        <path id="TimesNewRomanPSMT-2e" d="M 800 606 
Q 947 606 1047 504 
Q 1147 403 1147 259 
Q 1147 116 1045 14 
Q 944 -88 800 -88 
Q 656 -88 554 14 
Q 453 116 453 259 
Q 453 406 554 506 
Q 656 606 800 606 
z
" transform="scale(0.015625)"/>
       </defs>
       <use xlink:href="#TimesNewRomanPSMT-30"/>
       <use xlink:href="#TimesNewRomanPSMT-2e" x="50"/>
       <use xlink:href="#TimesNewRomanPSMT-30" x="75"/>
       <use xlink:href="#TimesNewRomanPSMT-30" x="125"/>
      </g>
     </g>
    </g>
    <g id="ytick_2">
     <g id="line2d_8">
      <g>
       <use xlink:href="#me50974985d" x="40.241094" y="117.068263" style="stroke: #000000; stroke-width: 0.8"/>
      </g>
     </g>
     <g id="text_9">
      <!-- 0.10 -->
      <g transform="translate(13.991094 120.887325) scale(0.11 -0.11)">
       <defs>
        <path id="TimesNewRomanPSMT-31" d="M 750 3822 
L 1781 4325 
L 1884 4325 
L 1884 747 
Q 1884 391 1914 303 
Q 1944 216 2037 169 
Q 2131 122 2419 116 
L 2419 0 
L 825 0 
L 825 116 
Q 1125 122 1212 167 
Q 1300 213 1334 289 
Q 1369 366 1369 747 
L 1369 3034 
Q 1369 3497 1338 3628 
Q 1316 3728 1258 3775 
Q 1200 3822 1119 3822 
Q 1003 3822 797 3725 
L 750 3822 
z
" transform="scale(0.015625)"/>
       </defs>
       <use xlink:href="#TimesNewRomanPSMT-30"/>
       <use xlink:href="#TimesNewRomanPSMT-2e" x="50"/>
       <use xlink:href="#TimesNewRomanPSMT-31" x="75"/>
       <use xlink:href="#TimesNewRomanPSMT-30" x="125"/>
      </g>
     </g>
    </g>
    <g id="ytick_3">
     <g id="line2d_9">
      <g>
       <use xlink:href="#me50974985d" x="40.241094" y="88.136526" style="stroke: #000000; stroke-width: 0.8"/>
      </g>
     </g>
     <g id="text_10">
      <!-- 0.20 -->
      <g transform="translate(13.991094 91.955588) scale(0.11 -0.11)">
       <defs>
        <path id="TimesNewRomanPSMT-32" d="M 2934 816 
L 2638 0 
L 138 0 
L 138 116 
Q 1241 1122 1691 1759 
Q 2141 2397 2141 2925 
Q 2141 3328 1894 3587 
Q 1647 3847 1303 3847 
Q 991 3847 742 3664 
Q 494 3481 375 3128 
L 259 3128 
Q 338 3706 661 4015 
Q 984 4325 1469 4325 
Q 1984 4325 2329 3994 
Q 2675 3663 2675 3213 
Q 2675 2891 2525 2569 
Q 2294 2063 1775 1497 
Q 997 647 803 472 
L 1909 472 
Q 2247 472 2383 497 
Q 2519 522 2628 598 
Q 2738 675 2819 816 
L 2934 816 
z
" transform="scale(0.015625)"/>
       </defs>
       <use xlink:href="#TimesNewRomanPSMT-30"/>
       <use xlink:href="#TimesNewRomanPSMT-2e" x="50"/>
       <use xlink:href="#TimesNewRomanPSMT-32" x="75"/>
       <use xlink:href="#TimesNewRomanPSMT-30" x="125"/>
      </g>
     </g>
    </g>
    <g id="ytick_4">
     <g id="line2d_10">
      <g>
       <use xlink:href="#me50974985d" x="40.241094" y="59.204789" style="stroke: #000000; stroke-width: 0.8"/>
      </g>
     </g>
     <g id="text_11">
      <!-- 0.30 -->
      <g transform="translate(13.991094 63.023851) scale(0.11 -0.11)">
       <defs>
        <path id="TimesNewRomanPSMT-33" d="M 325 3431 
Q 506 3859 782 4092 
Q 1059 4325 1472 4325 
Q 1981 4325 2253 3994 
Q 2459 3747 2459 3466 
Q 2459 3003 1878 2509 
Q 2269 2356 2469 2072 
Q 2669 1788 2669 1403 
Q 2669 853 2319 450 
Q 1863 -75 997 -75 
Q 569 -75 414 31 
Q 259 138 259 259 
Q 259 350 332 419 
Q 406 488 509 488 
Q 588 488 669 463 
Q 722 447 909 348 
Q 1097 250 1169 231 
Q 1284 197 1416 197 
Q 1734 197 1970 444 
Q 2206 691 2206 1028 
Q 2206 1275 2097 1509 
Q 2016 1684 1919 1775 
Q 1784 1900 1550 2001 
Q 1316 2103 1072 2103 
L 972 2103 
L 972 2197 
Q 1219 2228 1467 2375 
Q 1716 2522 1828 2728 
Q 1941 2934 1941 3181 
Q 1941 3503 1739 3701 
Q 1538 3900 1238 3900 
Q 753 3900 428 3381 
L 325 3431 
z
" transform="scale(0.015625)"/>
       </defs>
       <use xlink:href="#TimesNewRomanPSMT-30"/>
       <use xlink:href="#TimesNewRomanPSMT-2e" x="50"/>
       <use xlink:href="#TimesNewRomanPSMT-33" x="75"/>
       <use xlink:href="#TimesNewRomanPSMT-30" x="125"/>
      </g>
     </g>
    </g>
    <g id="text_12">
     <!-- MAE -->
     <g transform="translate(7.638125 100.472031) rotate(-90) scale(0.11 -0.11)">
      <defs>
       <path id="TimesNewRomanPSMT-45" d="M 1338 4006 
L 1338 2331 
L 2269 2331 
Q 2631 2331 2753 2441 
Q 2916 2584 2934 2947 
L 3050 2947 
L 3050 1472 
L 2934 1472 
Q 2891 1781 2847 1869 
Q 2791 1978 2662 2040 
Q 2534 2103 2269 2103 
L 1338 2103 
L 1338 706 
Q 1338 425 1363 364 
Q 1388 303 1450 267 
Q 1513 231 1688 231 
L 2406 231 
Q 2766 231 2928 281 
Q 3091 331 3241 478 
Q 3434 672 3638 1063 
L 3763 1063 
L 3397 0 
L 131 0 
L 131 116 
L 281 116 
Q 431 116 566 188 
Q 666 238 702 338 
Q 738 438 738 747 
L 738 3500 
Q 738 3903 656 3997 
Q 544 4122 281 4122 
L 131 4122 
L 131 4238 
L 3397 4238 
L 3444 3309 
L 3322 3309 
Q 3256 3644 3176 3769 
Q 3097 3894 2941 3959 
Q 2816 4006 2500 4006 
L 1338 4006 
z
" transform="scale(0.015625)"/>
      </defs>
      <use xlink:href="#TimesNewRomanPSMT-4d"/>
      <use xlink:href="#TimesNewRomanPSMT-41" x="88.916016"/>
      <use xlink:href="#TimesNewRomanPSMT-45" x="161.132812"/>
     </g>
    </g>
   </g>
   <g id="LineCollection_1">
    <path d="M 56.605303 63.195112 
L 56.605303 55.889014 
" clip-path="url(#p0decc6d9c8)" style="fill: none; stroke: #000000"/>
    <path d="M 92.141046 63.499622 
L 92.141046 63.499622 
" clip-path="url(#p0decc6d9c8)" style="fill: none; stroke: #000000"/>
    <path d="M 127.676789 64.171437 
L 127.676789 64.171437 
" clip-path="url(#p0decc6d9c8)" style="fill: none; stroke: #000000"/>
    <path d="M 163.212531 67.670058 
L 163.212531 57.833385 
" clip-path="url(#p0decc6d9c8)" style="fill: none; stroke: #000000"/>
    <path d="M 198.748274 57.316723 
L 198.748274 57.316723 
" clip-path="url(#p0decc6d9c8)" style="fill: none; stroke: #000000"/>
    <path d="M 234.284017 59.099197 
L 234.284017 55.208495 
" clip-path="url(#p0decc6d9c8)" style="fill: none; stroke: #000000"/>
   </g>
   <g id="line2d_11">
    <defs>
     <path id="m85c79c6f60" d="M 2 0 
L -2 -0 
" style="stroke: #000000"/>
    </defs>
    <g clip-path="url(#p0decc6d9c8)">
     <use xlink:href="#m85c79c6f60" x="56.605303" y="63.195112" style="stroke: #000000"/>
     <use xlink:href="#m85c79c6f60" x="92.141046" y="63.499622" style="stroke: #000000"/>
     <use xlink:href="#m85c79c6f60" x="127.676789" y="64.171437" style="stroke: #000000"/>
     <use xlink:href="#m85c79c6f60" x="163.212531" y="67.670058" style="stroke: #000000"/>
     <use xlink:href="#m85c79c6f60" x="198.748274" y="57.316723" style="stroke: #000000"/>
     <use xlink:href="#m85c79c6f60" x="234.284017" y="59.099197" style="stroke: #000000"/>
    </g>
   </g>
   <g id="line2d_12">
    <g clip-path="url(#p0decc6d9c8)">
     <use xlink:href="#m85c79c6f60" x="56.605303" y="55.889014" style="stroke: #000000"/>
     <use xlink:href="#m85c79c6f60" x="92.141046" y="63.499622" style="stroke: #000000"/>
     <use xlink:href="#m85c79c6f60" x="127.676789" y="64.171437" style="stroke: #000000"/>
     <use xlink:href="#m85c79c6f60" x="163.212531" y="57.833385" style="stroke: #000000"/>
     <use xlink:href="#m85c79c6f60" x="198.748274" y="57.316723" style="stroke: #000000"/>
     <use xlink:href="#m85c79c6f60" x="234.284017" y="55.208495" style="stroke: #000000"/>
    </g>
   </g>
   <g id="LineCollection_2">
    <path d="M 69.398171 68.280262 
L 69.398171 49.861848 
" clip-path="url(#p0decc6d9c8)" style="fill: none; stroke: #000000"/>
    <path d="M 104.933913 66.712747 
L 104.933913 54.264144 
" clip-path="url(#p0decc6d9c8)" style="fill: none; stroke: #000000"/>
    <path d="M 140.469656 67.432477 
L 140.469656 52.964226 
" clip-path="url(#p0decc6d9c8)" style="fill: none; stroke: #000000"/>
    <path d="M 176.005399 70.324174 
L 176.005399 54.417357 
" clip-path="url(#p0decc6d9c8)" style="fill: none; stroke: #000000"/>
    <path d="M 211.541142 71.286879 
L 211.541142 55.957692 
" clip-path="url(#p0decc6d9c8)" style="fill: none; stroke: #000000"/>
    <path d="M 247.076884 68.280262 
L 247.076884 49.861848 
" clip-path="url(#p0decc6d9c8)" style="fill: none; stroke: #000000"/>
   </g>
   <g id="line2d_13">
    <g clip-path="url(#p0decc6d9c8)">
     <use xlink:href="#m85c79c6f60" x="69.398171" y="68.280262" style="stroke: #000000"/>
     <use xlink:href="#m85c79c6f60" x="104.933913" y="66.712747" style="stroke: #000000"/>
     <use xlink:href="#m85c79c6f60" x="140.469656" y="67.432477" style="stroke: #000000"/>
     <use xlink:href="#m85c79c6f60" x="176.005399" y="70.324174" style="stroke: #000000"/>
     <use xlink:href="#m85c79c6f60" x="211.541142" y="71.286879" style="stroke: #000000"/>
     <use xlink:href="#m85c79c6f60" x="247.076884" y="68.280262" style="stroke: #000000"/>
    </g>
   </g>
   <g id="line2d_14">
    <g clip-path="url(#p0decc6d9c8)">
     <use xlink:href="#m85c79c6f60" x="69.398171" y="49.861848" style="stroke: #000000"/>
     <use xlink:href="#m85c79c6f60" x="104.933913" y="54.264144" style="stroke: #000000"/>
     <use xlink:href="#m85c79c6f60" x="140.469656" y="52.964226" style="stroke: #000000"/>
     <use xlink:href="#m85c79c6f60" x="176.005399" y="54.417357" style="stroke: #000000"/>
     <use xlink:href="#m85c79c6f60" x="211.541142" y="55.957692" style="stroke: #000000"/>
     <use xlink:href="#m85c79c6f60" x="247.076884" y="49.861848" style="stroke: #000000"/>
    </g>
   </g>
   <g id="patch_15">
    <path d="M 40.241094 146 
L 40.241094 30.5 
" style="fill: none; stroke: #000000; stroke-width: 0.8; stroke-linejoin: miter; stroke-linecap: square"/>
   </g>
   <g id="patch_16">
    <path d="M 263.441094 146 
L 263.441094 30.5 
" style="fill: none; stroke: #000000; stroke-width: 0.8; stroke-linejoin: miter; stroke-linecap: square"/>
   </g>
   <g id="patch_17">
    <path d="M 40.241094 146 
L 263.441094 146 
" style="fill: none; stroke: #000000; stroke-width: 0.8; stroke-linejoin: miter; stroke-linecap: square"/>
   </g>
   <g id="patch_18">
    <path d="M 40.241094 30.5 
L 263.441094 30.5 
" style="fill: none; stroke: #000000; stroke-width: 0.8; stroke-linejoin: miter; stroke-linecap: square"/>
   </g>
  </g>
  <g id="axes_2">
   <g id="patch_19">
    <path d="M 319.241094 146 
L 542.441094 146 
L 542.441094 30.5 
L 319.241094 30.5 
L 319.241094 146 
z
" style="fill: none"/>
   </g>
   <g id="patch_20">
    <path d="M 337.078974 146 
L 349.044969 146 
L 349.044969 71.60306 
L 337.078974 71.60306 
z
" clip-path="url(#pab306e5525)" style="fill: #e41a1c"/>
   </g>
   <g id="patch_21">
    <path d="M 371.267532 146 
L 383.233527 146 
L 383.233527 70.645975 
L 371.267532 70.645975 
z
" clip-path="url(#pab306e5525)" style="fill: #e41a1c"/>
   </g>
   <g id="patch_22">
    <path d="M 405.45609 146 
L 417.422085 146 
L 417.422085 69.40414 
L 405.45609 69.40414 
z
" clip-path="url(#pab306e5525)" style="fill: #e41a1c"/>
   </g>
   <g id="patch_23">
    <path d="M 439.644647 146 
L 451.610643 146 
L 451.610643 79.248016 
L 439.644647 79.248016 
z
" clip-path="url(#pab306e5525)" style="fill: #e41a1c"/>
   </g>
   <g id="patch_24">
    <path d="M 473.833205 146 
L 485.799201 146 
L 485.799201 68.617517 
L 473.833205 68.617517 
z
" clip-path="url(#pab306e5525)" style="fill: #e41a1c"/>
   </g>
   <g id="patch_25">
    <path d="M 508.021763 146 
L 519.987758 146 
L 519.987758 53.6 
L 508.021763 53.6 
z
" clip-path="url(#pab306e5525)" style="fill: #e41a1c"/>
   </g>
   <g id="patch_26">
    <path d="M 349.386855 146 
L 361.35285 146 
L 361.35285 74.572416 
L 349.386855 74.572416 
z
" clip-path="url(#pab306e5525)" style="fill: #377eb8"/>
   </g>
   <g id="patch_27">
    <path d="M 383.575413 146 
L 395.541408 146 
L 395.541408 78.101645 
L 383.575413 78.101645 
z
" clip-path="url(#pab306e5525)" style="fill: #377eb8"/>
   </g>
   <g id="patch_28">
    <path d="M 417.76397 146 
L 429.729966 146 
L 429.729966 77.145068 
L 417.76397 77.145068 
z
" clip-path="url(#pab306e5525)" style="fill: #377eb8"/>
   </g>
   <g id="patch_29">
    <path d="M 451.952528 146 
L 463.918523 146 
L 463.918523 78.41371 
L 451.952528 78.41371 
z
" clip-path="url(#pab306e5525)" style="fill: #377eb8"/>
   </g>
   <g id="patch_30">
    <path d="M 486.141086 146 
L 498.107081 146 
L 498.107081 78.690823 
L 486.141086 78.690823 
z
" clip-path="url(#pab306e5525)" style="fill: #377eb8"/>
   </g>
   <g id="patch_31">
    <path d="M 520.329644 146 
L 532.295639 146 
L 532.295639 74.572416 
L 520.329644 74.572416 
z
" clip-path="url(#pab306e5525)" style="fill: #377eb8"/>
   </g>
   <g id="patch_32">
    <path d="M 329.386548 146 
L 356.737395 146 
L 356.737395 146 
L 329.386548 146 
z
" clip-path="url(#pab306e5525)" style="fill: #e41a1c"/>
   </g>
   <g id="patch_33">
    <path d="M 397.763664 146 
L 425.11451 146 
L 425.11451 146 
L 397.763664 146 
z
" clip-path="url(#pab306e5525)" style="fill: #377eb8"/>
   </g>
   <g id="matplotlib.axis_3">
    <g id="xtick_7">
     <g id="line2d_15">
      <g>
       <use xlink:href="#mbafaaf4428" x="349.044969" y="146" style="stroke: #000000; stroke-width: 0.8"/>
      </g>
     </g>
     <g id="text_13">
      <!-- MLP -->
      <g transform="translate(337.736453 160.638125) scale(0.11 -0.11)">
       <use xlink:href="#TimesNewRomanPSMT-4d"/>
       <use xlink:href="#TimesNewRomanPSMT-4c" x="88.916016"/>
       <use xlink:href="#TimesNewRomanPSMT-50" x="150"/>
      </g>
     </g>
    </g>
    <g id="xtick_8">
     <g id="line2d_16">
      <g>
       <use xlink:href="#mbafaaf4428" x="383.233527" y="146" style="stroke: #000000; stroke-width: 0.8"/>
      </g>
     </g>
     <g id="text_14">
      <!-- LSTM -->
      <g transform="translate(368.565714 160.638125) scale(0.11 -0.11)">
       <use xlink:href="#TimesNewRomanPSMT-4c"/>
       <use xlink:href="#TimesNewRomanPSMT-53" x="61.083984"/>
       <use xlink:href="#TimesNewRomanPSMT-54" x="116.699219"/>
       <use xlink:href="#TimesNewRomanPSMT-4d" x="177.783203"/>
      </g>
     </g>
    </g>
    <g id="xtick_9">
     <g id="line2d_17">
      <g>
       <use xlink:href="#mbafaaf4428" x="417.422085" y="146" style="stroke: #000000; stroke-width: 0.8"/>
      </g>
     </g>
     <g id="text_15">
      <!-- GRU -->
      <g transform="translate(405.80935 160.638125) scale(0.11 -0.11)">
       <use xlink:href="#TimesNewRomanPSMT-47"/>
       <use xlink:href="#TimesNewRomanPSMT-52" x="72.216797"/>
       <use xlink:href="#TimesNewRomanPSMT-55" x="138.916016"/>
      </g>
     </g>
    </g>
    <g id="xtick_10">
     <g id="line2d_18">
      <g>
       <use xlink:href="#mbafaaf4428" x="451.610643" y="146" style="stroke: #000000; stroke-width: 0.8"/>
      </g>
     </g>
     <g id="text_16">
      <!-- SGD -->
      <g transform="translate(440.608065 160.638125) scale(0.11 -0.11)">
       <use xlink:href="#TimesNewRomanPSMT-53"/>
       <use xlink:href="#TimesNewRomanPSMT-47" x="55.615234"/>
       <use xlink:href="#TimesNewRomanPSMT-44" x="127.832031"/>
      </g>
     </g>
    </g>
    <g id="xtick_11">
     <g id="line2d_19">
      <g>
       <use xlink:href="#mbafaaf4428" x="485.799201" y="146" style="stroke: #000000; stroke-width: 0.8"/>
      </g>
     </g>
     <g id="text_17">
      <!-- RF -->
      <g transform="translate(479.072013 160.638125) scale(0.11 -0.11)">
       <use xlink:href="#TimesNewRomanPSMT-52"/>
       <use xlink:href="#TimesNewRomanPSMT-46" x="66.699219"/>
      </g>
     </g>
    </g>
    <g id="xtick_12">
     <g id="line2d_20">
      <g>
       <use xlink:href="#mbafaaf4428" x="519.987758" y="146" style="stroke: #000000; stroke-width: 0.8"/>
      </g>
     </g>
     <g id="text_18">
      <!-- LASSO -->
      <g transform="translate(502.567368 160.638125) scale(0.11 -0.11)">
       <use xlink:href="#TimesNewRomanPSMT-4c"/>
       <use xlink:href="#TimesNewRomanPSMT-41" x="61.083984"/>
       <use xlink:href="#TimesNewRomanPSMT-53" x="133.300781"/>
       <use xlink:href="#TimesNewRomanPSMT-53" x="188.916016"/>
       <use xlink:href="#TimesNewRomanPSMT-4f" x="244.53125"/>
      </g>
     </g>
    </g>
    <g id="text_19">
     <!-- Models -->
     <g transform="translate(414.340234 174.629219) scale(0.11 -0.11)">
      <use xlink:href="#TimesNewRomanPSMT-4d"/>
      <use xlink:href="#TimesNewRomanPSMT-6f" x="88.916016"/>
      <use xlink:href="#TimesNewRomanPSMT-64" x="138.916016"/>
      <use xlink:href="#TimesNewRomanPSMT-65" x="188.916016"/>
      <use xlink:href="#TimesNewRomanPSMT-6c" x="233.300781"/>
      <use xlink:href="#TimesNewRomanPSMT-73" x="261.083984"/>
     </g>
    </g>
   </g>
   <g id="matplotlib.axis_4">
    <g id="ytick_5">
     <g id="line2d_21">
      <g>
       <use xlink:href="#me50974985d" x="319.241094" y="146" style="stroke: #000000; stroke-width: 0.8"/>
      </g>
     </g>
     <g id="text_20">
      <!-- 0% -->
      <g transform="translate(297.578438 149.819063) scale(0.11 -0.11)">
       <defs>
        <path id="TimesNewRomanPSMT-25" d="M 4350 4334 
L 1263 -175 
L 984 -175 
L 4072 4334 
L 4350 4334 
z
M 1138 4334 
Q 1559 4334 1792 3984 
Q 2025 3634 2025 3181 
Q 2025 2638 1762 2341 
Q 1500 2044 1131 2044 
Q 884 2044 678 2180 
Q 472 2316 348 2584 
Q 225 2853 225 3181 
Q 225 3509 350 3786 
Q 475 4063 692 4198 
Q 909 4334 1138 4334 
z
M 1128 4159 
Q 969 4159 845 3971 
Q 722 3784 722 3184 
Q 722 2750 791 2522 
Q 844 2350 956 2256 
Q 1022 2200 1119 2200 
Q 1269 2200 1375 2363 
Q 1531 2603 1531 3166 
Q 1531 3759 1378 4000 
Q 1278 4159 1128 4159 
z
M 4206 2103 
Q 4428 2103 4648 1962 
Q 4869 1822 4989 1553 
Q 5109 1284 5109 963 
Q 5109 409 4843 117 
Q 4578 -175 4216 -175 
Q 3988 -175 3773 -34 
Q 3559 106 3436 367 
Q 3313 628 3313 963 
Q 3313 1291 3436 1562 
Q 3559 1834 3773 1968 
Q 3988 2103 4206 2103 
z
M 4209 1938 
Q 4059 1938 3950 1769 
Q 3809 1550 3809 941 
Q 3809 381 3953 159 
Q 4059 0 4209 0 
Q 4353 0 4466 172 
Q 4616 400 4616 956 
Q 4616 1544 4466 1778 
Q 4363 1938 4209 1938 
z
" transform="scale(0.015625)"/>
       </defs>
       <use xlink:href="#TimesNewRomanPSMT-30"/>
       <use xlink:href="#TimesNewRomanPSMT-25" x="50"/>
      </g>
     </g>
    </g>
    <g id="ytick_6">
     <g id="line2d_22">
      <g>
       <use xlink:href="#me50974985d" x="319.241094" y="109.460965" style="stroke: #000000; stroke-width: 0.8"/>
      </g>
     </g>
     <g id="text_21">
      <!-- 20% -->
      <g transform="translate(292.078438 113.280028) scale(0.11 -0.11)">
       <use xlink:href="#TimesNewRomanPSMT-32"/>
       <use xlink:href="#TimesNewRomanPSMT-30" x="50"/>
       <use xlink:href="#TimesNewRomanPSMT-25" x="100"/>
      </g>
     </g>
    </g>
    <g id="ytick_7">
     <g id="line2d_23">
      <g>
       <use xlink:href="#me50974985d" x="319.241094" y="72.921931" style="stroke: #000000; stroke-width: 0.8"/>
      </g>
     </g>
     <g id="text_22">
      <!-- 40% -->
      <g transform="translate(292.078438 76.740993) scale(0.11 -0.11)">
       <defs>
        <path id="TimesNewRomanPSMT-34" d="M 2978 1563 
L 2978 1119 
L 2409 1119 
L 2409 0 
L 1894 0 
L 1894 1119 
L 100 1119 
L 100 1519 
L 2066 4325 
L 2409 4325 
L 2409 1563 
L 2978 1563 
z
M 1894 1563 
L 1894 3666 
L 406 1563 
L 1894 1563 
z
" transform="scale(0.015625)"/>
       </defs>
       <use xlink:href="#TimesNewRomanPSMT-34"/>
       <use xlink:href="#TimesNewRomanPSMT-30" x="50"/>
       <use xlink:href="#TimesNewRomanPSMT-25" x="100"/>
      </g>
     </g>
    </g>
    <g id="ytick_8">
     <g id="line2d_24">
      <g>
       <use xlink:href="#me50974985d" x="319.241094" y="36.382896" style="stroke: #000000; stroke-width: 0.8"/>
      </g>
     </g>
     <g id="text_23">
      <!-- 60% -->
      <g transform="translate(292.078438 40.201958) scale(0.11 -0.11)">
       <defs>
        <path id="TimesNewRomanPSMT-36" d="M 2869 4325 
L 2869 4209 
Q 2456 4169 2195 4045 
Q 1934 3922 1679 3669 
Q 1425 3416 1258 3105 
Q 1091 2794 978 2366 
Q 1428 2675 1881 2675 
Q 2316 2675 2634 2325 
Q 2953 1975 2953 1425 
Q 2953 894 2631 456 
Q 2244 -75 1606 -75 
Q 1172 -75 869 213 
Q 275 772 275 1663 
Q 275 2231 503 2743 
Q 731 3256 1154 3653 
Q 1578 4050 1965 4187 
Q 2353 4325 2688 4325 
L 2869 4325 
z
M 925 2138 
Q 869 1716 869 1456 
Q 869 1156 980 804 
Q 1091 453 1309 247 
Q 1469 100 1697 100 
Q 1969 100 2183 356 
Q 2397 613 2397 1088 
Q 2397 1622 2184 2012 
Q 1972 2403 1581 2403 
Q 1463 2403 1327 2353 
Q 1191 2303 925 2138 
z
" transform="scale(0.015625)"/>
       </defs>
       <use xlink:href="#TimesNewRomanPSMT-36"/>
       <use xlink:href="#TimesNewRomanPSMT-30" x="50"/>
       <use xlink:href="#TimesNewRomanPSMT-25" x="100"/>
      </g>
     </g>
    </g>
    <g id="text_24">
     <!-- MAPE -->
     <g transform="translate(285.725469 103.530547) rotate(-90) scale(0.11 -0.11)">
      <use xlink:href="#TimesNewRomanPSMT-4d"/>
      <use xlink:href="#TimesNewRomanPSMT-41" x="88.916016"/>
      <use xlink:href="#TimesNewRomanPSMT-50" x="161.132812"/>
      <use xlink:href="#TimesNewRomanPSMT-45" x="216.748047"/>
     </g>
    </g>
   </g>
   <g id="LineCollection_3">
    <path d="M 343.061971 73.735058 
L 343.061971 69.471062 
" clip-path="url(#pab306e5525)" style="fill: none; stroke: #000000"/>
    <path d="M 377.250529 70.645975 
L 377.250529 70.645975 
" clip-path="url(#pab306e5525)" style="fill: none; stroke: #000000"/>
    <path d="M 411.439087 69.40414 
L 411.439087 69.40414 
" clip-path="url(#pab306e5525)" style="fill: none; stroke: #000000"/>
    <path d="M 445.627645 83.157777 
L 445.627645 75.338255 
" clip-path="url(#pab306e5525)" style="fill: none; stroke: #000000"/>
    <path d="M 479.816203 68.617517 
L 479.816203 68.617517 
" clip-path="url(#pab306e5525)" style="fill: none; stroke: #000000"/>
    <path d="M 514.004761 57.315119 
L 514.004761 49.884881 
" clip-path="url(#pab306e5525)" style="fill: none; stroke: #000000"/>
   </g>
   <g id="line2d_25">
    <g clip-path="url(#pab306e5525)">
     <use xlink:href="#m85c79c6f60" x="343.061971" y="73.735058" style="stroke: #000000"/>
     <use xlink:href="#m85c79c6f60" x="377.250529" y="70.645975" style="stroke: #000000"/>
     <use xlink:href="#m85c79c6f60" x="411.439087" y="69.40414" style="stroke: #000000"/>
     <use xlink:href="#m85c79c6f60" x="445.627645" y="83.157777" style="stroke: #000000"/>
     <use xlink:href="#m85c79c6f60" x="479.816203" y="68.617517" style="stroke: #000000"/>
     <use xlink:href="#m85c79c6f60" x="514.004761" y="57.315119" style="stroke: #000000"/>
    </g>
   </g>
   <g id="line2d_26">
    <g clip-path="url(#pab306e5525)">
     <use xlink:href="#m85c79c6f60" x="343.061971" y="69.471062" style="stroke: #000000"/>
     <use xlink:href="#m85c79c6f60" x="377.250529" y="70.645975" style="stroke: #000000"/>
     <use xlink:href="#m85c79c6f60" x="411.439087" y="69.40414" style="stroke: #000000"/>
     <use xlink:href="#m85c79c6f60" x="445.627645" y="75.338255" style="stroke: #000000"/>
     <use xlink:href="#m85c79c6f60" x="479.816203" y="68.617517" style="stroke: #000000"/>
     <use xlink:href="#m85c79c6f60" x="514.004761" y="49.884881" style="stroke: #000000"/>
    </g>
   </g>
   <g id="LineCollection_4">
    <path d="M 355.369852 83.178003 
L 355.369852 65.966829 
" clip-path="url(#pab306e5525)" style="fill: none; stroke: #000000"/>
    <path d="M 389.55841 92.00425 
L 389.55841 64.199039 
" clip-path="url(#pab306e5525)" style="fill: none; stroke: #000000"/>
    <path d="M 423.746968 93.740918 
L 423.746968 60.549218 
" clip-path="url(#pab306e5525)" style="fill: none; stroke: #000000"/>
    <path d="M 457.935526 88.417899 
L 457.935526 68.40952 
" clip-path="url(#pab306e5525)" style="fill: none; stroke: #000000"/>
    <path d="M 492.124084 89.589356 
L 492.124084 67.79229 
" clip-path="url(#pab306e5525)" style="fill: none; stroke: #000000"/>
    <path d="M 526.312642 83.178003 
L 526.312642 65.966829 
" clip-path="url(#pab306e5525)" style="fill: none; stroke: #000000"/>
   </g>
   <g id="line2d_27">
    <g clip-path="url(#pab306e5525)">
     <use xlink:href="#m85c79c6f60" x="355.369852" y="83.178003" style="stroke: #000000"/>
     <use xlink:href="#m85c79c6f60" x="389.55841" y="92.00425" style="stroke: #000000"/>
     <use xlink:href="#m85c79c6f60" x="423.746968" y="93.740918" style="stroke: #000000"/>
     <use xlink:href="#m85c79c6f60" x="457.935526" y="88.417899" style="stroke: #000000"/>
     <use xlink:href="#m85c79c6f60" x="492.124084" y="89.589356" style="stroke: #000000"/>
     <use xlink:href="#m85c79c6f60" x="526.312642" y="83.178003" style="stroke: #000000"/>
    </g>
   </g>
   <g id="line2d_28">
    <g clip-path="url(#pab306e5525)">
     <use xlink:href="#m85c79c6f60" x="355.369852" y="65.966829" style="stroke: #000000"/>
     <use xlink:href="#m85c79c6f60" x="389.55841" y="64.199039" style="stroke: #000000"/>
     <use xlink:href="#m85c79c6f60" x="423.746968" y="60.549218" style="stroke: #000000"/>
     <use xlink:href="#m85c79c6f60" x="457.935526" y="68.40952" style="stroke: #000000"/>
     <use xlink:href="#m85c79c6f60" x="492.124084" y="67.79229" style="stroke: #000000"/>
     <use xlink:href="#m85c79c6f60" x="526.312642" y="65.966829" style="stroke: #000000"/>
    </g>
   </g>
   <g id="patch_34">
    <path d="M 319.241094 146 
L 319.241094 30.5 
" style="fill: none; stroke: #000000; stroke-width: 0.8; stroke-linejoin: miter; stroke-linecap: square"/>
   </g>
   <g id="patch_35">
    <path d="M 542.441094 146 
L 542.441094 30.5 
" style="fill: none; stroke: #000000; stroke-width: 0.8; stroke-linejoin: miter; stroke-linecap: square"/>
   </g>
   <g id="patch_36">
    <path d="M 319.241094 146 
L 542.441094 146 
" style="fill: none; stroke: #000000; stroke-width: 0.8; stroke-linejoin: miter; stroke-linecap: square"/>
   </g>
   <g id="patch_37">
    <path d="M 319.241094 30.5 
L 542.441094 30.5 
" style="fill: none; stroke: #000000; stroke-width: 0.8; stroke-linejoin: miter; stroke-linecap: square"/>
   </g>
  </g>
  <g id="legend_1">
   <g id="patch_38">
    <path d="M 178.023516 18.873594 
L 388.458672 18.873594 
Q 390.658672 18.873594 390.658672 16.673594 
L 390.658672 2.2 
Q 390.658672 0 388.458672 0 
L 178.023516 0 
Q 175.823516 0 175.823516 2.2 
L 175.823516 16.673594 
Q 175.823516 18.873594 178.023516 18.873594 
z
" style="fill: #ffffff; opacity: 0.5; stroke: #cccccc; stroke-linejoin: miter"/>
   </g>
   <g id="patch_39">
    <path d="M 180.223516 12.1 
L 196.723516 12.1 
L 196.723516 4.4 
L 180.223516 4.4 
z
" style="fill: #e41a1c"/>
   </g>
   <g id="text_25">
    <!-- Transfer learning -->
    <g transform="translate(198.923516 12.1) scale(0.11 -0.11)">
     <defs>
      <path id="TimesNewRomanPSMT-72" d="M 1038 2947 
L 1038 2303 
Q 1397 2947 1775 2947 
Q 1947 2947 2059 2842 
Q 2172 2738 2172 2600 
Q 2172 2478 2090 2393 
Q 2009 2309 1897 2309 
Q 1788 2309 1652 2417 
Q 1516 2525 1450 2525 
Q 1394 2525 1328 2463 
Q 1188 2334 1038 2041 
L 1038 669 
Q 1038 431 1097 309 
Q 1138 225 1241 169 
Q 1344 113 1538 113 
L 1538 0 
L 72 0 
L 72 113 
Q 291 113 397 181 
Q 475 231 506 341 
Q 522 394 522 644 
L 522 1753 
Q 522 2253 501 2348 
Q 481 2444 426 2487 
Q 372 2531 291 2531 
Q 194 2531 72 2484 
L 41 2597 
L 906 2947 
L 1038 2947 
z
" transform="scale(0.015625)"/>
      <path id="TimesNewRomanPSMT-61" d="M 1822 413 
Q 1381 72 1269 19 
Q 1100 -59 909 -59 
Q 613 -59 420 144 
Q 228 347 228 678 
Q 228 888 322 1041 
Q 450 1253 767 1440 
Q 1084 1628 1822 1897 
L 1822 2009 
Q 1822 2438 1686 2597 
Q 1550 2756 1291 2756 
Q 1094 2756 978 2650 
Q 859 2544 859 2406 
L 866 2225 
Q 866 2081 792 2003 
Q 719 1925 600 1925 
Q 484 1925 411 2006 
Q 338 2088 338 2228 
Q 338 2497 613 2722 
Q 888 2947 1384 2947 
Q 1766 2947 2009 2819 
Q 2194 2722 2281 2516 
Q 2338 2381 2338 1966 
L 2338 994 
Q 2338 584 2353 492 
Q 2369 400 2405 369 
Q 2441 338 2488 338 
Q 2538 338 2575 359 
Q 2641 400 2828 588 
L 2828 413 
Q 2478 -56 2159 -56 
Q 2006 -56 1915 50 
Q 1825 156 1822 413 
z
M 1822 616 
L 1822 1706 
Q 1350 1519 1213 1441 
Q 966 1303 859 1153 
Q 753 1003 753 825 
Q 753 600 887 451 
Q 1022 303 1197 303 
Q 1434 303 1822 616 
z
" transform="scale(0.015625)"/>
      <path id="TimesNewRomanPSMT-6e" d="M 1034 2341 
Q 1538 2947 1994 2947 
Q 2228 2947 2397 2830 
Q 2566 2713 2666 2444 
Q 2734 2256 2734 1869 
L 2734 647 
Q 2734 375 2778 278 
Q 2813 200 2889 156 
Q 2966 113 3172 113 
L 3172 0 
L 1756 0 
L 1756 113 
L 1816 113 
Q 2016 113 2095 173 
Q 2175 234 2206 353 
Q 2219 400 2219 647 
L 2219 1819 
Q 2219 2209 2117 2386 
Q 2016 2563 1775 2563 
Q 1403 2563 1034 2156 
L 1034 647 
Q 1034 356 1069 288 
Q 1113 197 1189 155 
Q 1266 113 1500 113 
L 1500 0 
L 84 0 
L 84 113 
L 147 113 
Q 366 113 442 223 
Q 519 334 519 647 
L 519 1709 
Q 519 2225 495 2337 
Q 472 2450 423 2490 
Q 375 2531 294 2531 
Q 206 2531 84 2484 
L 38 2597 
L 900 2947 
L 1034 2947 
L 1034 2341 
z
" transform="scale(0.015625)"/>
      <path id="TimesNewRomanPSMT-66" d="M 1319 2638 
L 1319 756 
Q 1319 356 1406 250 
Q 1522 113 1716 113 
L 1975 113 
L 1975 0 
L 266 0 
L 266 113 
L 394 113 
Q 519 113 622 175 
Q 725 238 764 344 
Q 803 450 803 756 
L 803 2638 
L 247 2638 
L 247 2863 
L 803 2863 
L 803 3050 
Q 803 3478 940 3775 
Q 1078 4072 1361 4255 
Q 1644 4438 1997 4438 
Q 2325 4438 2600 4225 
Q 2781 4084 2781 3909 
Q 2781 3816 2700 3733 
Q 2619 3650 2525 3650 
Q 2453 3650 2373 3701 
Q 2294 3753 2178 3923 
Q 2063 4094 1966 4153 
Q 1869 4213 1750 4213 
Q 1606 4213 1506 4136 
Q 1406 4059 1362 3898 
Q 1319 3738 1319 3069 
L 1319 2863 
L 2056 2863 
L 2056 2638 
L 1319 2638 
z
" transform="scale(0.015625)"/>
      <path id="TimesNewRomanPSMT-20" transform="scale(0.015625)"/>
      <path id="TimesNewRomanPSMT-69" d="M 928 4444 
Q 1059 4444 1151 4351 
Q 1244 4259 1244 4128 
Q 1244 3997 1151 3903 
Q 1059 3809 928 3809 
Q 797 3809 703 3903 
Q 609 3997 609 4128 
Q 609 4259 701 4351 
Q 794 4444 928 4444 
z
M 1188 2947 
L 1188 647 
Q 1188 378 1227 289 
Q 1266 200 1342 156 
Q 1419 113 1622 113 
L 1622 0 
L 231 0 
L 231 113 
Q 441 113 512 153 
Q 584 194 626 287 
Q 669 381 669 647 
L 669 1750 
Q 669 2216 641 2353 
Q 619 2453 572 2492 
Q 525 2531 444 2531 
Q 356 2531 231 2484 
L 188 2597 
L 1050 2947 
L 1188 2947 
z
" transform="scale(0.015625)"/>
      <path id="TimesNewRomanPSMT-67" d="M 966 1044 
Q 703 1172 562 1401 
Q 422 1631 422 1909 
Q 422 2334 742 2640 
Q 1063 2947 1563 2947 
Q 1972 2947 2272 2747 
L 2878 2747 
Q 3013 2747 3034 2739 
Q 3056 2731 3066 2713 
Q 3084 2684 3084 2613 
Q 3084 2531 3069 2500 
Q 3059 2484 3036 2475 
Q 3013 2466 2878 2466 
L 2506 2466 
Q 2681 2241 2681 1891 
Q 2681 1491 2375 1206 
Q 2069 922 1553 922 
Q 1341 922 1119 984 
Q 981 866 932 777 
Q 884 688 884 625 
Q 884 572 936 522 
Q 988 472 1138 450 
Q 1225 438 1575 428 
Q 2219 413 2409 384 
Q 2700 344 2873 169 
Q 3047 -6 3047 -263 
Q 3047 -616 2716 -925 
Q 2228 -1381 1444 -1381 
Q 841 -1381 425 -1109 
Q 191 -953 191 -784 
Q 191 -709 225 -634 
Q 278 -519 444 -313 
Q 466 -284 763 25 
Q 600 122 533 198 
Q 466 275 466 372 
Q 466 481 555 628 
Q 644 775 966 1044 
z
M 1509 2797 
Q 1278 2797 1122 2612 
Q 966 2428 966 2047 
Q 966 1553 1178 1281 
Q 1341 1075 1591 1075 
Q 1828 1075 1981 1253 
Q 2134 1431 2134 1813 
Q 2134 2309 1919 2591 
Q 1759 2797 1509 2797 
z
M 934 0 
Q 788 -159 713 -296 
Q 638 -434 638 -550 
Q 638 -700 819 -813 
Q 1131 -1006 1722 -1006 
Q 2284 -1006 2551 -807 
Q 2819 -609 2819 -384 
Q 2819 -222 2659 -153 
Q 2497 -84 2016 -72 
Q 1313 -53 934 0 
z
" transform="scale(0.015625)"/>
     </defs>
     <use xlink:href="#TimesNewRomanPSMT-54"/>
     <use xlink:href="#TimesNewRomanPSMT-72" x="57.583984"/>
     <use xlink:href="#TimesNewRomanPSMT-61" x="90.884766"/>
     <use xlink:href="#TimesNewRomanPSMT-6e" x="135.269531"/>
     <use xlink:href="#TimesNewRomanPSMT-73" x="185.269531"/>
     <use xlink:href="#TimesNewRomanPSMT-66" x="224.185547"/>
     <use xlink:href="#TimesNewRomanPSMT-65" x="257.486328"/>
     <use xlink:href="#TimesNewRomanPSMT-72" x="301.871094"/>
     <use xlink:href="#TimesNewRomanPSMT-20" x="335.171875"/>
     <use xlink:href="#TimesNewRomanPSMT-6c" x="360.171875"/>
     <use xlink:href="#TimesNewRomanPSMT-65" x="387.955078"/>
     <use xlink:href="#TimesNewRomanPSMT-61" x="432.339844"/>
     <use xlink:href="#TimesNewRomanPSMT-72" x="476.724609"/>
     <use xlink:href="#TimesNewRomanPSMT-6e" x="510.025391"/>
     <use xlink:href="#TimesNewRomanPSMT-69" x="560.025391"/>
     <use xlink:href="#TimesNewRomanPSMT-6e" x="587.808594"/>
     <use xlink:href="#TimesNewRomanPSMT-67" x="637.808594"/>
    </g>
   </g>
   <g id="patch_40">
    <path d="M 278.982891 12.1 
L 295.482891 12.1 
L 295.482891 4.4 
L 278.982891 4.4 
z
" style="fill: #377eb8"/>
   </g>
   <g id="text_26">
    <!-- No transfer learning -->
    <g transform="translate(297.682891 12.1) scale(0.11 -0.11)">
     <defs>
      <path id="TimesNewRomanPSMT-4e" d="M -84 4238 
L 1066 4238 
L 3656 1059 
L 3656 3503 
Q 3656 3894 3569 3991 
Q 3453 4122 3203 4122 
L 3056 4122 
L 3056 4238 
L 4531 4238 
L 4531 4122 
L 4381 4122 
Q 4113 4122 4000 3959 
Q 3931 3859 3931 3503 
L 3931 -69 
L 3819 -69 
L 1025 3344 
L 1025 734 
Q 1025 344 1109 247 
Q 1228 116 1475 116 
L 1625 116 
L 1625 0 
L 150 0 
L 150 116 
L 297 116 
Q 569 116 681 278 
Q 750 378 750 734 
L 750 3681 
Q 566 3897 470 3965 
Q 375 4034 191 4094 
Q 100 4122 -84 4122 
L -84 4238 
z
" transform="scale(0.015625)"/>
      <path id="TimesNewRomanPSMT-74" d="M 1031 3803 
L 1031 2863 
L 1700 2863 
L 1700 2644 
L 1031 2644 
L 1031 788 
Q 1031 509 1111 412 
Q 1191 316 1316 316 
Q 1419 316 1516 380 
Q 1613 444 1666 569 
L 1788 569 
Q 1678 263 1478 108 
Q 1278 -47 1066 -47 
Q 922 -47 784 33 
Q 647 113 581 261 
Q 516 409 516 719 
L 516 2644 
L 63 2644 
L 63 2747 
Q 234 2816 414 2980 
Q 594 3144 734 3369 
Q 806 3488 934 3803 
L 1031 3803 
z
" transform="scale(0.015625)"/>
     </defs>
     <use xlink:href="#TimesNewRomanPSMT-4e"/>
     <use xlink:href="#TimesNewRomanPSMT-6f" x="72.216797"/>
     <use xlink:href="#TimesNewRomanPSMT-20" x="122.216797"/>
     <use xlink:href="#TimesNewRomanPSMT-74" x="147.216797"/>
     <use xlink:href="#TimesNewRomanPSMT-72" x="175"/>
     <use xlink:href="#TimesNewRomanPSMT-61" x="208.300781"/>
     <use xlink:href="#TimesNewRomanPSMT-6e" x="252.685547"/>
     <use xlink:href="#TimesNewRomanPSMT-73" x="302.685547"/>
     <use xlink:href="#TimesNewRomanPSMT-66" x="341.601562"/>
     <use xlink:href="#TimesNewRomanPSMT-65" x="374.902344"/>
     <use xlink:href="#TimesNewRomanPSMT-72" x="419.287109"/>
     <use xlink:href="#TimesNewRomanPSMT-20" x="452.587891"/>
     <use xlink:href="#TimesNewRomanPSMT-6c" x="477.587891"/>
     <use xlink:href="#TimesNewRomanPSMT-65" x="505.371094"/>
     <use xlink:href="#TimesNewRomanPSMT-61" x="549.755859"/>
     <use xlink:href="#TimesNewRomanPSMT-72" x="594.140625"/>
     <use xlink:href="#TimesNewRomanPSMT-6e" x="627.441406"/>
     <use xlink:href="#TimesNewRomanPSMT-69" x="677.441406"/>
     <use xlink:href="#TimesNewRomanPSMT-6e" x="705.224609"/>
     <use xlink:href="#TimesNewRomanPSMT-67" x="755.224609"/>
    </g>
   </g>
  </g>
 </g>
 <defs>
  <clipPath id="p0decc6d9c8">
   <rect x="40.241094" y="30.5" width="223.2" height="115.5"/>
  </clipPath>
  <clipPath id="pab306e5525">
   <rect x="319.241094" y="30.5" width="223.2" height="115.5"/>
  </clipPath>
 </defs>
</svg>
